<svg viewBox="0 0 121 21" xmlns="http://www.w3.org/2000/svg" fill-rule="evenodd" clip-rule="evenodd" stroke-linejoin="round" stroke-miterlimit="2"><path d="M.971 20.131c1.354 0 1.825-.294 1.825-1.766V2.59C2.796 1.089 2.383.765.971.765H0V.383h7.534c4.325 0 6.916 1.56 6.916 4.709 0 2.62-1.795 4.268-4.974 4.915v.118c3.973.618 5.709 2.237 5.709 5.208 0 2.913-2.913 5.181-7.357 5.181H0v-.383h.971zM12.685 5.239c0-3.001-2.031-4.474-5.621-4.474h-.825c-1.354 0-1.912.266-1.912 1.708v7.504h3.061c3.118 0 5.297-1.53 5.297-4.738zM7.858 20.131c4.179 0 5.533-2.148 5.533-4.708 0-2.885-1.795-5.063-5.887-5.063H4.326v8.064c0 1.472.589 1.707 1.972 1.707h1.56zm20.337-6.122l-.5 1.53c-.412 1.296-.735 2.237-.735 3.061 0 1.061.618 1.531 1.677 1.531h.589v.383h-5.562v-.383c1.589-.088 2.206-1.207 3.001-3.473L32.67 0h.411l6.416 18.042c.618 1.766 1.442 2.06 2.649 2.089v.383h-6.8v-.383h.825c1.147 0 1.854-.471 1.854-1.059 0-.531-.265-1.414-.677-2.591l-.854-2.473h-8.299v.001zm4.15-11.831l-4.032 11.449h8.064L32.345 2.178zm20.779 14.45c0 2.914.707 3.503 2.943 3.503h.118v.383H49.74v-.383h.294c1.942 0 2.59-.56 2.59-3.503V2.207C51.594 1.03 51.123.765 49.622.765V.383h3.708l11.626 17.805V4.297c0-2.825-.678-3.532-2.914-3.532h-.117V.383h6.415v.382h-.234c-1.944 0-2.621.824-2.621 3.532v16.688h-.471L53.124 2.796v13.832zm24.016 3.503c1.354 0 1.824-.323 1.824-1.766V2.502c0-1.442-.471-1.737-1.824-1.737h-.972V.383h7.593c5.504 0 9.448 3.179 9.448 10.006 0 6.975-4.385 10.125-9.684 10.125h-7.357v-.383h.972zm6.474 0c5.004 0 7.771-3.296 7.771-9.624 0-6.534-2.472-9.742-7.623-9.742h-1.294c-1.384 0-1.942.294-1.942 1.737v15.893c0 1.442.559 1.736 1.942 1.736h1.146zm22.486-6.122l-.5 1.53c-.412 1.296-.735 2.237-.735 3.061 0 1.061.618 1.531 1.678 1.531h.588v.383h-5.562v-.383c1.588-.088 2.207-1.207 3.002-3.473L110.575 0h.412l6.416 18.042c.618 1.766 1.441 2.06 2.648 2.089v.383h-6.799v-.383h.824c1.148 0 1.854-.471 1.854-1.059 0-.531-.265-1.414-.677-2.591l-.853-2.473h-8.3v.001zm4.151-11.831l-4.032 11.449h8.064l-4.032-11.449z" fill="#1d1d1b" fill-rule="nonzero"/></svg>